<?xml version="1.0" encoding="UTF-8"?>
<svg width="130px" height="30px" viewBox="0 0 130 30" version="1.1" xmlns="http://www.w3.org/2000/svg" xmlns:xlink="http://www.w3.org/1999/xlink">
    <!-- Generator: Sketch 55.2 (78181) - https://sketchapp.com -->
    <title>logo/white</title>
    <desc>Created with Sketch.</desc>
    <g id="Page-1" stroke="none" stroke-width="1" fill="none" fill-rule="evenodd">
        <g id="Index-Top-Nav-bar-on-scroll" transform="translate(-124.000000, -22.000000)" fill="#FFFFFF">
            <g id="White-Nav-bar" transform="translate(124.000000, 22.000000)">
                <g id="Group">
                    <g id="logo/white">
                        <path d="M40.6171875,23 L40.6171875,10.1503906 L43.3417969,10.1503906 L43.3417969,20.75 L48.5537109,20.75 L48.5537109,23 L40.6171875,23 Z M55.3445313,14.8964844 C54.776169,14.8964844 54.330861,15.0766584 54.0085938,15.4370117 C53.6863265,15.7973651 53.501758,16.3085904 53.4548828,16.9707031 L57.2166016,16.9707031 C57.2048828,16.3085904 57.0320329,15.7973651 56.6980469,15.4370117 C56.3640608,15.0766584 55.9128935,14.8964844 55.3445313,14.8964844 Z M55.7224609,23.1757812 C54.1404218,23.1757812 52.904106,22.7392622 52.0134766,21.8662109 C51.1228471,20.9931597 50.6775391,19.7568439 50.6775391,18.1572266 C50.6775391,16.510734 51.089156,15.2377975 51.9124023,14.3383789 C52.7356486,13.4389603 53.8738209,12.9892578 55.3269531,12.9892578 C56.7156319,12.9892578 57.7966758,13.3847617 58.5701172,14.1757812 C59.3435586,14.9668008 59.7302734,16.0595633 59.7302734,17.4541016 L59.7302734,18.7548828 L53.3933594,18.7548828 C53.4226564,19.5166054 53.6482401,20.111326 54.0701172,20.5390625 C54.4919943,20.966799 55.0837853,21.1806641 55.8455078,21.1806641 C56.4373076,21.1806641 56.9968724,21.1191412 57.5242188,20.9960938 C58.0515651,20.8730463 58.6023409,20.6767592 59.1765625,20.4072266 L59.1765625,22.4814453 C58.7078102,22.7158215 58.2068386,22.8901361 57.6736328,23.0043945 C57.140427,23.1186529 56.4900429,23.1757812 55.7224609,23.1757812 Z M68.8501953,23 L68.3316406,21.6640625 L68.2613281,21.6640625 C67.810154,22.2324247 67.3458032,22.6264637 66.8682617,22.8461914 C66.3907203,23.0659191 65.7681679,23.1757812 65.0005859,23.1757812 C64.0572218,23.1757812 63.3145535,22.9062527 62.7725586,22.3671875 C62.2305637,21.8281223 61.9595703,21.0605519 61.9595703,20.0644531 C61.9595703,19.0214792 62.3243128,18.2524439 63.0538086,17.7573242 C63.7833044,17.2622046 64.8833911,16.9882815 66.3541016,16.9355469 L68.0591797,16.8828125 L68.0591797,16.4521484 C68.0591797,15.4560497 67.5494192,14.9580078 66.5298828,14.9580078 C65.7447226,14.9580078 64.8218803,15.1953101 63.7613281,15.6699219 L62.8736328,13.859375 C64.0044978,13.2675752 65.2583916,12.9716797 66.6353516,12.9716797 C67.9537175,12.9716797 68.9644496,13.2587862 69.6675781,13.8330078 C70.3707066,14.4072294 70.7222656,15.2802676 70.7222656,16.4521484 L70.7222656,23 L68.8501953,23 Z M68.0591797,18.4472656 L67.0220703,18.4824219 C66.2427695,18.5058595 65.6626972,18.6464831 65.2818359,18.9042969 C64.9009747,19.1621107 64.7105469,19.5546849 64.7105469,20.0820312 C64.7105469,20.8378944 65.1441363,21.2158203 66.0113281,21.2158203 C66.632425,21.2158203 67.129002,21.0371112 67.5010742,20.6796875 C67.8731464,20.3222638 68.0591797,19.8476592 68.0591797,19.2558594 L68.0591797,18.4472656 Z M79.6664062,12.9892578 C80.0296893,12.9892578 80.3314441,13.0156247 80.5716797,13.0683594 L80.3695312,15.5820312 C80.1527333,15.5234372 79.8890641,15.4941406 79.5785156,15.4941406 C78.7230426,15.4941406 78.0565454,15.713865 77.5790039,16.1533203 C77.1014625,16.5927756 76.8626953,17.2080039 76.8626953,17.9990234 L76.8626953,23 L74.1820312,23 L74.1820312,13.1738281 L76.2123047,13.1738281 L76.6078125,14.8261719 L76.7396484,14.8261719 C77.0443375,14.2753879 77.4559544,13.8315447 77.9745117,13.4946289 C78.493069,13.1577132 79.0570282,12.9892578 79.6664062,12.9892578 Z M92.1261719,23 L89.4455078,23 L89.4455078,17.2607422 C89.4455078,16.5517543 89.3195325,16.0200213 89.0675781,15.6655273 C88.8156237,15.3110334 88.4142606,15.1337891 87.8634766,15.1337891 C87.1134728,15.1337891 86.571486,15.3842748 86.2375,15.8852539 C85.903514,16.386233 85.7365234,17.2167911 85.7365234,18.3769531 L85.7365234,23 L83.0558594,23 L83.0558594,13.1738281 L85.1037109,13.1738281 L85.4640625,14.4306641 L85.6134766,14.4306641 C85.9123062,13.9560523 86.3239232,13.5971692 86.8483398,13.3540039 C87.3727565,13.1108386 87.968942,12.9892578 88.6369141,12.9892578 C89.7794979,12.9892578 90.6466767,13.2983368 91.2384766,13.9165039 C91.8302764,14.5346711 92.1261719,15.426752 92.1261719,16.5927734 L92.1261719,23 Z M103.663086,23 L102.731445,19.9414062 L98.046875,19.9414062 L97.1152344,23 L94.1796875,23 L98.7148438,10.0976562 L102.045898,10.0976562 L106.598633,23 L103.663086,23 Z M102.081055,17.65625 C101.219722,14.8847518 100.734864,13.3173846 100.626465,12.9541016 C100.518066,12.5908185 100.44043,12.303712 100.393555,12.0927734 C100.200194,12.8427772 99.6464889,14.6972508 98.7324219,17.65625 L102.081055,17.65625 Z M114.101367,23.1757812 C112.947065,23.1757812 112.0418,22.7568401 111.385547,21.9189453 L111.244922,21.9189453 C111.338672,22.7392619 111.385547,23.2138665 111.385547,23.3427734 L111.385547,27.3242188 L108.704883,27.3242188 L108.704883,13.1738281 L110.88457,13.1738281 L111.2625,14.4482422 L111.385547,14.4482422 C112.012503,13.4755811 112.941205,12.9892578 114.17168,12.9892578 C115.331842,12.9892578 116.240036,13.4374955 116.896289,14.3339844 C117.552542,15.2304732 117.880664,16.475578 117.880664,18.0693359 C117.880664,19.1181693 117.726857,20.029293 117.419238,20.8027344 C117.11162,21.5761757 116.673636,22.165037 116.105273,22.5693359 C115.536911,22.9736348 114.868949,23.1757812 114.101367,23.1757812 Z M113.310352,15.1337891 C112.648239,15.1337891 112.164845,15.3374003 111.860156,15.7446289 C111.555467,16.1518575 111.397266,16.8242141 111.385547,17.7617188 L111.385547,18.0517578 C111.385547,19.1064506 111.542284,19.8623024 111.855762,20.3193359 C112.16924,20.7763695 112.665817,21.0048828 113.345508,21.0048828 C114.546686,21.0048828 115.147266,20.0146583 115.147266,18.0341797 C115.147266,17.067378 114.999318,16.3422876 114.703418,15.8588867 C114.407518,15.3754859 113.943167,15.1337891 113.310352,15.1337891 Z M126.191992,23.1757812 C125.03769,23.1757812 124.132425,22.7568401 123.476172,21.9189453 L123.335547,21.9189453 C123.429297,22.7392619 123.476172,23.2138665 123.476172,23.3427734 L123.476172,27.3242188 L120.795508,27.3242188 L120.795508,13.1738281 L122.975195,13.1738281 L123.353125,14.4482422 L123.476172,14.4482422 C124.103128,13.4755811 125.03183,12.9892578 126.262305,12.9892578 C127.422467,12.9892578 128.330661,13.4374955 128.986914,14.3339844 C129.643167,15.2304732 129.971289,16.475578 129.971289,18.0693359 C129.971289,19.1181693 129.817482,20.029293 129.509863,20.8027344 C129.202245,21.5761757 128.764261,22.165037 128.195898,22.5693359 C127.627536,22.9736348 126.959574,23.1757812 126.191992,23.1757812 Z M125.400977,15.1337891 C124.738864,15.1337891 124.25547,15.3374003 123.950781,15.7446289 C123.646092,16.1518575 123.487891,16.8242141 123.476172,17.7617188 L123.476172,18.0517578 C123.476172,19.1064506 123.632909,19.8623024 123.946387,20.3193359 C124.259865,20.7763695 124.756442,21.0048828 125.436133,21.0048828 C126.637311,21.0048828 127.237891,20.0146583 127.237891,18.0341797 C127.237891,17.067378 127.089943,16.3422876 126.794043,15.8588867 C126.498143,15.3754859 126.033792,15.1337891 125.400977,15.1337891 Z" id="LearnApp" fill-rule="nonzero"></path>
                        <path d="M6,-9.23705556e-14 L23.7692308,-9.23705556e-14 C27.0829393,-9.09242881e-14 29.7692308,2.6862915 29.7692308,6 L29.7692308,23.7692308 C29.7692308,27.0829393 27.0829393,29.7692308 23.7692308,29.7692308 L6,29.7692308 C2.6862915,29.7692308 3.63366011e-13,27.0829393 3.62376795e-13,23.7692308 L3.62376795e-13,6 C3.61082805e-13,2.6862915 2.6862915,-9.26500157e-14 6,-9.23705556e-14 Z M21.7854728,18.4143961 L21.7854728,18.4026895 L21.632714,18.4026895 L20.124216,18.4026895 L16.2597967,18.4026895 C15.7104311,18.4026895 15.2651237,18.8480352 15.2651237,19.3973625 L15.2651237,19.9111876 C15.2651237,20.4605149 15.7104311,20.9058606 16.2597967,20.9058606 L20.124216,20.9058606 L20.124216,22.4199441 L14.6686642,22.4199441 L14.6686642,5.18677578 C14.6686642,4.63741025 14.2233185,4.19210281 13.6739913,4.19210281 L12.7372771,4.19210281 L12.1655314,4.19210281 L10.8107868,4.19210281 L10.2341443,4.19210281 L9.30236528,4.19210281 C8.75299975,4.19210281 8.30769231,4.63741025 8.30769231,5.18677578 L8.30769231,19.8736578 C8.30769231,20.4229851 8.75299975,20.8683308 9.30236528,20.8683308 L9.37180111,20.8683308 L10.3154397,20.8683308 L10.6551205,20.8683308 C11.2044478,20.8683308 11.6497935,20.4229851 11.6497935,19.8736578 L11.6497935,19.3598327 C11.6497935,18.8634909 11.286164,18.4521171 10.8107868,18.3773636 L10.8107868,6.6952356 L12.1655314,6.6952356 L12.1655314,23.9284039 C12.1655314,24.4777695 12.6108771,24.9230769 13.1602044,24.9230769 L14.3085926,24.9230769 L14.6686642,24.9230769 L20.124216,24.9230769 L20.8289418,24.9230769 L21.632714,24.9230769 C22.1820413,24.9230769 22.627387,24.4777695 22.627387,23.9284039 L22.627387,19.3973625 C22.627387,18.8999878 22.2623038,18.4879254 21.7854728,18.4143961 Z" id="Combined-Shape"></path>
                    </g>
                </g>
            </g>
        </g>
    </g>
</svg>