<svg aria-hidden="true" style="position: absolute; width: 0; height: 0; overflow: hidden;" version="1.1" xmlns="http://www.w3.org/2000/svg" xmlns:xlink="http://www.w3.org/1999/xlink">
<defs>
<symbol id="live-play-blue" viewBox="0 0 24 32">
<title>live-play-blue</title>
<path fill="#5ecafa" style="fill: var(--color1, #5ecafa)" opacity="0.792" d="M2.979 31.239l20.215-13.843c0.503-0.348 0.828-0.921 0.828-1.571 0-0.648-0.323-1.22-0.817-1.563l-0.006-0.004-20.215-13.932c-0.302-0.21-0.676-0.336-1.080-0.336-1.051 0-1.903 0.852-1.903 1.903v27.776c0 0 0 0.001 0 0.001 0 1.051 0.852 1.903 1.903 1.903 0.402 0 0.775-0.125 1.082-0.337l-0.006 0.004z"></path>
<path fill="#b9e9ff" style="fill: var(--color2, #b9e9ff)" d="M2.948 31.217l20.235-13.884c0.502-0.348 0.826-0.921 0.826-1.569 0-1.051-0.852-1.903-1.903-1.903-0.097 0-0.192 0.007-0.285 0.021l0.010-0.001-4.616 0.674c-5.484 0.823-10.126 3.884-13.041 8.206l-0.043 0.068-3.846 5.763c-0.2 0.297-0.319 0.662-0.319 1.055 0 1.051 0.852 1.903 1.903 1.903 0.402 0 0.775-0.125 1.082-0.338l-0.006 0.004z"></path>
</symbol>
<symbol id="live-qa-blue" viewBox="0 0 35 32">
<title>live-qa-blue</title>
<path fill="#5ecafa" style="fill: var(--color1, #5ecafa)" d="M21.558 25.806l-2.59 4.747c-0.354 0.639-1.025 1.065-1.794 1.065-0.712 0-1.34-0.364-1.706-0.917l-0.005-0.008-3.2-4.887h-5.79c-3.387 0-6.133-2.746-6.133-6.133v-13.54c0-3.387 2.746-6.133 6.133-6.133v0h21.721c3.387 0 6.133 2.746 6.133 6.133v0 13.54c0 3.387-2.746 6.133-6.133 6.133v0h-6.636z"></path>
<path fill="#fff" style="fill: var(--color3, #fff)" d="M7.138 6.882h15.293c0.939 0 1.7 0.77 1.7 1.72 0 0.003 0 0.007 0 0.011 0 0.941-0.76 1.704-1.699 1.71h-15.294c-0.94-0.007-1.699-0.77-1.699-1.71 0-0.004 0-0.008 0-0.011v0.001c0-0.95 0.761-1.72 1.699-1.72zM7.138 13.764h8.496c0.939 0 1.7 0.77 1.7 1.72 0 0.003 0 0.007 0 0.011 0 0.941-0.76 1.704-1.699 1.71h-8.497c-0.94-0.007-1.699-0.77-1.699-1.71 0-0.004 0-0.008 0-0.011v0.001c0-0.95 0.761-1.72 1.699-1.72z"></path>
</symbol>
</defs>
</svg>
